<svg width="53" height="64" viewBox="0 0 53 64" fill="none" xmlns="http://www.w3.org/2000/svg">
<path fill-rule="evenodd" clip-rule="evenodd" d="M42.4 5.33333H10.6C7.69711 5.33333 5.3 7.74552 5.3 10.6667V53.3333C5.3 56.2545 7.69711 58.6667 10.6 58.6667H42.4C45.3029 58.6667 47.7 56.2545 47.7 53.3333V10.6667C47.7 7.74552 45.3029 5.33333 42.4 5.33333ZM42.4 0H10.6C4.77 0 0 4.8 0 10.6667V53.3333C0 59.2 4.77 64 10.6 64H42.4C48.23 64 53 59.2 53 53.3333V10.6667C53 4.8 48.23 0 42.4 0Z" fill="#E20714"/>
<path d="M42.4 29.3333H10.6V34.6667H42.4V29.3333Z" fill="#E20714"/>
<path d="M30.21 16H22.26V48H30.21V16Z" fill="#E20714"/>
</svg>
