<svg width="575" height="64" viewBox="0 0 575 64" fill="none" xmlns="http://www.w3.org/2000/svg">
<path d="M64 0H0V64H64V0Z" fill="#E20714"/>
<path fill-rule="evenodd" clip-rule="evenodd" d="M50.5016 43.7995L51.9575 43.8082V46.8104L45.3518 46.8017V43.8166L46.5115 43.7995L46.1661 41.0542H42.7523L42.3983 43.7995L43.5005 43.8166L43.4924 46.8017L38.0218 46.8104V43.8166L39.2722 43.8082L42.6449 16.9603L47.0627 16.9516L50.5016 43.7995ZM44.4632 26.9502L43.221 37.1883H45.6726L44.4632 26.9502Z" fill="white"/>
<path fill-rule="evenodd" clip-rule="evenodd" d="M33.1023 19.9453H31.8023L33.8591 36.35L35.8828 19.9453L34.3774 19.9366L34.3691 16.9602H40.3087V19.9453H39.0583L35.6362 46.8103H31.284L27.8208 19.9453L26.3729 19.9366V16.9602H33.1023" fill="white"/>
<path fill-rule="evenodd" clip-rule="evenodd" d="M22.5724 16.9517H25.3529V27.66H22.5724L22.564 24.8976C22.564 22.6223 22.2597 19.6888 20.022 19.6888C18.1711 19.6888 18.0888 22.0921 18.0888 22.0921V41.8839C18.0888 41.8839 18.0888 43.9623 19.9891 43.9623C21.8814 43.9623 21.832 42.0889 21.832 42.0889V34.6308L20.5155 34.6392V31.4491H27.0722L27.0641 34.6392L25.8958 34.6224L25.8874 46.8018L23.1153 46.8102L22.3255 45.1512C22.3255 45.1512 20.8035 47.1609 18.7304 47.1609C14.0002 47.1609 14.2387 41.807 14.2387 41.807L14.2222 22.0065C14.2222 22.0065 14.2306 16.5926 18.4754 16.5926C21.3876 16.5926 22.5724 19.0301 22.5724 19.0301" fill="white"/>
<path fill-rule="evenodd" clip-rule="evenodd" d="M99.2593 5.41907H104.694V25.348H99.244V20.1917C99.244 15.9605 98.6482 10.5133 94.285 10.5133C90.6528 10.5133 90.4983 14.9734 90.4983 14.9734V51.8203C90.4983 51.8203 90.5066 55.682 94.2113 55.682C97.9061 55.682 97.8101 52.1925 97.8101 52.1925V38.3132H95.2443V32.4H108.045V38.3132H105.746V61.0616H100.33L98.7832 57.8879C98.7832 57.8879 95.8095 61.6296 91.7471 61.6296C82.5155 61.6296 82.9665 51.6672 82.9665 51.6672V14.819C82.9665 14.819 82.9665 4.74075 91.2501 4.74075C96.9511 4.74075 99.2593 9.28629 99.2593 9.28629V5.41907Z" fill="#E20714"/>
<path fill-rule="evenodd" clip-rule="evenodd" d="M119.634 23.7643L117.404 43.2361H121.811L119.634 23.7643ZM130.511 55.8405H133.128V61.6296H121.236V55.8405H123.326L122.703 50.6012H116.547L115.924 55.8405H117.905V61.6296H108.045V55.8405H110.287L116.365 4.74075H124.323L130.511 55.8405Z" fill="#E20714"/>
<path fill-rule="evenodd" clip-rule="evenodd" d="M158.195 4.74075V9.96526L145.345 55.8414H153.227V40.3652H158.211V61.6296H138.145V55.544L150.798 10.4388H143.803V24.8594H138.868V4.74075H158.195Z" fill="#E20714"/>
<path fill-rule="evenodd" clip-rule="evenodd" d="M183.293 24.8548H177.625V10.4325H173.147V29.1638L177.614 29.1469V35.0387L173.147 35.0303V55.8393L177.625 55.8238V40.3626H183.293V61.6296H163.227V55.8477L165.928 55.8393V10.4325L163.227 10.4212V4.74075H183.293V24.8548Z" fill="#E20714"/>
<path fill-rule="evenodd" clip-rule="evenodd" d="M193.127 61.6296L193.156 55.8384H196.912V10.4009H193.931V24.8403H188.31L188.325 4.74075H213.36L213.392 24.8403H207.776V10.4009H204.79V55.8384H208.541L208.572 61.6296H193.127Z" fill="#E20714"/>
<path fill-rule="evenodd" clip-rule="evenodd" d="M235.547 10.4368H233.19L236.91 41.6461L240.547 10.4368H237.824V4.74075H248.508V10.4368H246.263L240.098 61.6296H232.267L226.023 10.4368H223.425V4.74075H235.547V10.4368Z" fill="#E20714"/>
<path fill-rule="evenodd" clip-rule="evenodd" d="M260.086 23.7587L257.862 43.2304H262.262L260.086 23.7587ZM270.968 55.8414H273.59V61.6296H261.699V55.8414H263.789L263.156 50.5802H257.009L256.372 55.8414H258.361V61.6296H248.508V55.8414H250.749L256.827 4.74075H264.77L270.968 55.8414Z" fill="#E20714"/>
<path fill-rule="evenodd" clip-rule="evenodd" d="M295.325 34.8235V10.4272H292.615V4.74075H303.689V10.4442H300.961V61.6296H293.797L287.224 31.2566V55.6486H290.204V61.6296H278.607V55.6402H281.602V10.4272H279.115V4.74075H288.785L295.325 34.8235Z" fill="#E20714"/>
<path fill-rule="evenodd" clip-rule="evenodd" d="M325.302 23.7577L323.079 43.2455H327.48L325.302 23.7577ZM336.175 55.8324H338.805V61.6296H326.917V55.8324H329L328.375 50.5961H322.232L321.592 55.8324H323.584V61.6296H313.722V55.8324H315.967L322.043 4.74075H329.984L336.175 55.8324Z" fill="#E20714"/>
<path fill-rule="evenodd" clip-rule="evenodd" d="M360.532 34.8242V10.4119H357.829V4.74075H368.904V10.4387H366.164V61.6296H359.001L352.437 31.2572V55.6499H355.402V61.6296H343.821V55.6414H346.809V10.4274H344.327V4.74075H353.994L360.532 34.8242Z" fill="#E20714"/>
<path fill-rule="evenodd" clip-rule="evenodd" d="M378.742 61.6296L378.767 55.8308H382.527V10.4085H379.529V24.8457H373.92L373.939 4.74075H398.978L399.003 24.8457H393.389V10.4085H390.404V55.8308H394.16L394.184 61.6296H378.742Z" fill="#E20714"/>
<path fill-rule="evenodd" clip-rule="evenodd" d="M417.279 4.74075V10.4309H414.288L417.695 34.6574L421.482 4.74075H428.148L432.362 34.687L435.467 10.4394H432.746V4.74075H444.151V10.4478H441.47L434.942 61.6296H428.62L424.205 30.553L420.276 61.6296H413.945L406.633 10.4309H404.019L404.035 4.74075H417.279Z" fill="#E20714"/>
<path fill-rule="evenodd" clip-rule="evenodd" d="M464.217 24.8548H458.55V10.4212L454.073 10.4367V29.1553H458.54V35.0359L454.073 35.0275V55.8322L458.55 55.8238V40.371H464.217V61.6296H444.151V55.8477L446.858 55.8322V10.4367L444.151 10.4127V4.74075H464.217V24.8548Z" fill="#E20714"/>
<path fill-rule="evenodd" clip-rule="evenodd" d="M483.585 28.86C484.372 28.8683 487.873 29.3958 487.873 23.5491V16.2173C487.873 10.6726 486.581 10.3943 483.739 10.3943H481.122L481.156 28.86H483.585ZM481.103 34.6552V55.0666H484.471V60.9245H469.234V55.0263H472.813V10.3943H470.007V4.76047H483.673C486.817 4.76047 491.766 4.1648 494.573 9.52164C495.666 11.8194 496.099 13.8528 496.099 19.1178C496.099 24.1684 495.372 27.5364 493.967 29.7382C493.265 30.8307 491.216 32.0624 490.363 32.2085C490.363 32.2085 493.618 32.8529 494.902 35.1284C496.679 38.2348 496.306 42.7886 496.306 50.0271C496.306 56.4612 499.333 55.203 499.333 55.203V60.8243C492.317 63.1179 490.202 59.9517 489.338 58.2927C487.607 54.9845 487.981 48.1023 487.981 42.1763C487.981 37.9829 486.77 34.6552 484.586 34.6552H481.103Z" fill="#E20714"/>
<path fill-rule="evenodd" clip-rule="evenodd" d="M516.528 15.677C516.406 12.4066 516.05 10.4485 512.476 10.4485H510.537V29.1437C510.537 29.1437 511.739 29.3805 512.845 29.3805C512.845 29.3805 516.528 29.6934 516.528 23.7714V15.677ZM524.415 19.2844C524.415 24.4001 524.261 28.9336 522.926 31.1722C520.486 35.2645 515.778 35.4012 514.236 35.4012C512.797 35.4012 510.522 35.0135 510.522 35.0135V55.654H513.685V61.6296H499.333V55.654H502.706V10.4485H500.063V4.74075H512.937C515.874 4.74075 521.18 5.00295 523.197 9.56466C524.243 11.8906 524.415 13.9502 524.415 19.2844Z" fill="#E20714"/>
<path fill-rule="evenodd" clip-rule="evenodd" d="M544.481 24.8548H538.808V10.4212L534.329 10.4367V29.1553H538.801V35.0359L534.329 35.0275V55.8322L538.808 55.8238V40.371H544.481V61.6296H524.415V55.8477L527.112 55.8322V10.4367L524.415 10.4127V4.74075H544.481V24.8548Z" fill="#E20714"/>
<path fill-rule="evenodd" clip-rule="evenodd" d="M566.207 34.8242V10.4119H563.5V4.74075H574.58V10.4387H571.847V61.6296H564.674L558.108 31.2572V55.6499H561.082V61.6296H549.498V55.6414H552.485V10.4274H550.009V4.74075H559.671L566.207 34.8242Z" fill="#E20714"/>
</svg>
