<svg width="96" height="96" viewBox="0 0 96 96" fill="none" xmlns="http://www.w3.org/2000/svg">
<path fill-rule="evenodd" clip-rule="evenodd" d="M31.5973 16.7613H25.7026V21.1676C25.7026 21.1676 23.1908 16 17.0169 16C8.0177 16 8 27.4777 8 27.4777L8.03489 69.4553C8.03489 69.4553 7.52921 80.8057 17.5575 80.8057C21.9524 80.8057 25.1792 76.545 25.1792 76.545L26.8535 80.0623L32.7306 80.0444L32.7483 54.2237L35.2251 54.2595L35.2423 47.4962H21.342V54.2595L24.1329 54.2416V70.053C24.1329 70.053 24.2376 74.0246 20.226 74.0246C16.1972 74.0246 16.1972 69.6182 16.1972 69.6182V27.6591C16.1972 27.6591 16.3716 22.564 20.2958 22.564C25.0396 22.564 25.6849 28.7831 25.6849 33.6069L25.7026 39.4632H31.5973V16.7613ZM84.9133 73.6795L88 73.6979V80.0626L73.9955 80.0442V73.7158L76.4542 73.6795L75.7219 67.8594H68.4846L67.7341 73.6795L70.0709 73.7158L70.0537 80.0442L58.4558 80.0626V73.7158L61.1066 73.6979L68.257 16.7795L77.6228 16.7611L84.9133 73.6795ZM72.1118 37.9584L69.4782 59.6635H74.6757L72.1118 37.9584ZM48.0262 23.1078H45.2703L49.6308 57.8863L53.921 23.1078L50.7297 23.0894L50.712 16.7794H63.304V23.1078H60.6532L53.3982 80.0625H44.1714L36.8293 23.1078L33.7598 23.0894V16.7794H48.0262V23.1078Z" fill="white"/>
</svg>
